<svg aria-hidden="true" style="position: absolute; width: 0; height: 0; overflow: hidden;" version="1.1" xmlns="http://www.w3.org/2000/svg" xmlns:xlink="http://www.w3.org/1999/xlink">
<defs>
<symbol id="icon-azure" viewBox="0 0 40 32">
<title>azure</title>
<path fill="#0072c6" style="fill: var(--color1, #0072c6)" d="M21.909 0.002l-11.821 10.251-10.088 18.107h9.096zM23.482 2.4l-5.045 14.22 9.673 12.154-18.767 3.224h30.757z"></path>
</symbol>
<symbol id="icon-medium1" viewBox="0 0 32 32">
<title>medium1</title>
<path fill="#fedd3e" style="fill: var(--color2, #fedd3e)" d="M0 0h32v32h-32v-32z"></path>
<path fill="#111" style="fill: var(--color3, #111)" d="M7.636 10.702c0.027-0.264-0.074-0.525-0.271-0.702l-2.007-2.418v-0.361h6.232l4.817 10.565 4.235-10.565h5.941v0.361l-1.716 1.645c-0.148 0.113-0.221 0.298-0.191 0.482v12.090c-0.031 0.183 0.043 0.369 0.191 0.482l1.676 1.645v0.361h-8.43v-0.361l1.736-1.686c0.171-0.171 0.171-0.221 0.171-0.482v-9.772l-4.827 12.261h-0.652l-5.62-12.261v8.217c-0.047 0.345 0.068 0.693 0.311 0.943l2.258 2.739v0.361h-6.403v-0.361l2.258-2.739c0.241-0.25 0.35-0.6 0.291-0.943v-9.502z"></path>
</symbol>
<symbol id="icon-medium" viewBox="0 0 32 32">
<title>medium</title>
<path fill="#12100e" style="fill: var(--color4, #12100e)" d="M0 0h32v32h-32v-32z"></path>
<path fill="#fff" style="fill: var(--color5, #fff)" d="M7.636 10.702c0.027-0.264-0.074-0.525-0.271-0.702l-2.007-2.418v-0.361h6.232l4.817 10.565 4.235-10.565h5.941v0.361l-1.716 1.645c-0.148 0.113-0.221 0.298-0.191 0.482v12.090c-0.031 0.183 0.043 0.369 0.191 0.482l1.676 1.645v0.361h-8.43v-0.361l1.736-1.686c0.171-0.171 0.171-0.221 0.171-0.482v-9.772l-4.827 12.261h-0.652l-5.62-12.261v8.217c-0.047 0.345 0.068 0.693 0.311 0.943l2.258 2.739v0.361h-6.403v-0.361l2.258-2.739c0.241-0.25 0.35-0.6 0.291-0.943v-9.502z"></path>
</symbol>
<symbol id="icon-viber" viewBox="0 0 32 32">
<title>viber</title>
<path d="M6.399 2.008c-0.539 0.060-1.147 0.253-1.68 0.53-1.254 0.661-2.187 1.948-2.434 3.366-0.054 0.301-0.057 0.706-0.057 10.069v9.757l0.069 0.304c0.429 1.939 1.799 3.31 3.739 3.739l0.304 0.069h19.602l0.304-0.069c1.939-0.429 3.31-1.799 3.739-3.739l0.069-0.304v-9.757c0-9.363-0.003-9.768-0.057-10.069-0.075-0.435-0.223-0.873-0.45-1.326-0.706-1.421-2.124-2.404-3.715-2.577-0.363-0.039-19.081-0.036-19.433 0.006zM17.043 6.962c1.025 0.128 1.853 0.375 2.762 0.819 0.894 0.438 1.466 0.852 2.222 1.606 0.709 0.712 1.102 1.251 1.519 2.088 0.581 1.168 0.912 2.556 0.968 4.084 0.021 0.521 0.006 0.637-0.113 0.786-0.226 0.289-0.724 0.241-0.894-0.083-0.054-0.107-0.069-0.2-0.086-0.617-0.030-0.64-0.074-1.055-0.164-1.549-0.352-1.939-1.281-3.488-2.765-4.6-1.236-0.929-2.514-1.382-4.189-1.481-0.566-0.033-0.664-0.054-0.792-0.152-0.238-0.188-0.25-0.629-0.021-0.834 0.14-0.128 0.238-0.146 0.724-0.131 0.253 0.009 0.626 0.039 0.828 0.063zM10.233 7.284c0.104 0.036 0.265 0.119 0.357 0.179 0.566 0.375 2.142 2.392 2.657 3.399 0.295 0.575 0.393 1.001 0.301 1.317-0.095 0.34-0.253 0.518-0.959 1.087-0.283 0.229-0.548 0.465-0.59 0.527-0.107 0.155-0.194 0.459-0.194 0.673 0.003 0.497 0.325 1.4 0.748 2.094 0.328 0.539 0.915 1.23 1.495 1.761 0.682 0.626 1.284 1.052 1.963 1.388 0.873 0.435 1.406 0.545 1.796 0.363 0.098-0.045 0.203-0.104 0.235-0.131 0.030-0.027 0.259-0.307 0.509-0.617 0.483-0.608 0.593-0.706 0.924-0.819 0.42-0.143 0.849-0.104 1.281 0.116 0.328 0.17 1.043 0.614 1.504 0.935 0.608 0.426 1.907 1.487 2.082 1.698 0.31 0.381 0.363 0.87 0.155 1.409-0.22 0.569-1.078 1.635-1.677 2.091-0.542 0.411-0.926 0.569-1.433 0.593-0.417 0.021-0.59-0.015-1.123-0.235-4.183-1.725-7.522-4.299-10.174-7.835-1.385-1.847-2.44-3.763-3.161-5.75-0.42-1.159-0.441-1.662-0.095-2.255 0.149-0.25 0.784-0.87 1.245-1.215 0.769-0.572 1.123-0.784 1.406-0.843 0.194-0.042 0.53-0.009 0.745 0.069zM17.249 9.122c1.808 0.265 3.208 1.105 4.126 2.47 0.515 0.769 0.837 1.671 0.947 2.639 0.039 0.355 0.039 1.001-0.003 1.108-0.039 0.101-0.164 0.238-0.271 0.295-0.116 0.060-0.363 0.054-0.5-0.018-0.229-0.116-0.298-0.301-0.298-0.801 0-0.772-0.2-1.585-0.545-2.216-0.393-0.721-0.965-1.317-1.662-1.731-0.599-0.357-1.484-0.623-2.291-0.688-0.292-0.024-0.453-0.083-0.563-0.212-0.17-0.194-0.188-0.456-0.045-0.673 0.155-0.241 0.393-0.28 1.105-0.173zM17.883 11.371c0.587 0.125 1.037 0.349 1.421 0.709 0.495 0.468 0.766 1.034 0.885 1.847 0.080 0.53 0.048 0.739-0.14 0.912-0.176 0.161-0.5 0.167-0.697 0.015-0.143-0.107-0.188-0.22-0.22-0.527-0.039-0.408-0.11-0.694-0.232-0.959-0.262-0.563-0.724-0.855-1.504-0.95-0.366-0.045-0.477-0.086-0.596-0.226-0.218-0.259-0.134-0.679 0.167-0.834 0.113-0.057 0.161-0.063 0.411-0.048 0.155 0.009 0.384 0.036 0.506 0.063z"></path>
</symbol>
<symbol id="icon-ansible-icon" viewBox="0 0 32 32">
<title>ansible-icon</title>
<path fill="#1a1918" style="fill: var(--color6, #1a1918)" d="M32 16c0 8.837-7.163 16-16 16s-16-7.163-16-16c0-8.836 7.164-16 16-16s16 7.164 16 16z"></path>
<path fill="#fff" style="fill: var(--color5, #fff)" d="M16.269 9.774l4.141 10.219-6.254-4.926zM23.625 22.347l-6.369-15.327c-0.182-0.442-0.545-0.676-0.987-0.676s-0.832 0.234-1.014 0.676l-6.99 16.812h2.391l2.767-6.932 8.258 6.671c0.332 0.268 0.572 0.39 0.883 0.39 0.624 0 1.169-0.468 1.169-1.143 0-0.11-0.039-0.284-0.109-0.472z"></path>
</symbol>
<symbol id="icon-kubernetes" viewBox="0 0 33 32">
<title>kubernetes</title>
<path fill="#326ce5" style="fill: var(--color7, #326ce5)" d="M16.365 0.459c-0.3 0.016-0.578 0.090-0.829 0.212l0.013-0.005-11.139 5.322c-0.578 0.28-1.002 0.797-1.15 1.419l-0.003 0.014-2.748 11.955c-0.034 0.141-0.053 0.304-0.053 0.471 0 0.427 0.128 0.825 0.348 1.157l-0.005-0.008c0.042 0.065 0.082 0.12 0.124 0.172l-0.003-0.004 7.71 9.586c0.394 0.486 0.993 0.795 1.665 0.795 0 0 0 0 0 0l12.364-0.003c0 0 0.001 0 0.002 0 0.671 0 1.27-0.308 1.661-0.789l0.003-0.004 7.707-9.587c0.29-0.358 0.465-0.817 0.465-1.318 0-0.167-0.019-0.329-0.056-0.484l0.003 0.014-2.752-11.955c-0.15-0.636-0.575-1.153-1.14-1.428l-0.013-0.005-11.14-5.319c-0.27-0.132-0.588-0.209-0.924-0.209-0.038 0-0.076 0.001-0.114 0.003l0.005-0z"></path>
<path fill="#fff" style="fill: var(--color5, #fff)" d="M16.475 4.527c-0.368 0-0.667 0.332-0.667 0.741 0 0.006 0.001 0.012 0.001 0.019-0.001 0.056-0.003 0.123-0.001 0.171 0.009 0.236 0.060 0.417 0.091 0.634 0.056 0.465 0.103 0.851 0.074 1.209-0.028 0.135-0.128 0.259-0.217 0.345l-0.016 0.282c-0.4 0.033-0.803 0.094-1.205 0.185-1.731 0.393-3.222 1.285-4.356 2.489-0.074-0.050-0.202-0.143-0.241-0.171-0.119 0.016-0.239 0.053-0.396-0.038-0.298-0.201-0.57-0.478-0.899-0.812-0.151-0.16-0.26-0.312-0.439-0.466-0.041-0.035-0.103-0.082-0.148-0.118-0.14-0.112-0.305-0.17-0.464-0.175-0.205-0.007-0.402 0.073-0.531 0.235-0.23 0.288-0.156 0.728 0.164 0.983 0.003 0.003 0.007 0.005 0.010 0.007 0.044 0.036 0.098 0.081 0.138 0.111 0.19 0.14 0.363 0.212 0.553 0.323 0.399 0.246 0.729 0.45 0.992 0.697 0.102 0.109 0.12 0.301 0.134 0.385l0.214 0.191c-1.144 1.722-1.673 3.848-1.36 6.014l-0.279 0.081c-0.074 0.095-0.178 0.245-0.286 0.289-0.343 0.108-0.729 0.148-1.195 0.197-0.219 0.018-0.408 0.007-0.64 0.051-0.051 0.010-0.122 0.028-0.178 0.041-0.002 0-0.004 0.001-0.006 0.001-0.003 0.001-0.007 0.002-0.010 0.003-0.393 0.095-0.645 0.456-0.564 0.812s0.465 0.572 0.86 0.487c0.003-0.001 0.007-0.001 0.010-0.001 0.004-0.001 0.008-0.003 0.013-0.004 0.055-0.012 0.124-0.026 0.172-0.038 0.228-0.061 0.393-0.151 0.598-0.229 0.441-0.158 0.806-0.29 1.162-0.342 0.149-0.012 0.305 0.092 0.383 0.135l0.291-0.050c0.669 2.073 2.070 3.749 3.845 4.801l-0.121 0.291c0.044 0.113 0.092 0.266 0.059 0.377-0.129 0.336-0.351 0.69-0.603 1.085-0.122 0.182-0.247 0.324-0.358 0.533-0.026 0.050-0.060 0.127-0.085 0.18-0.171 0.367-0.046 0.789 0.284 0.947 0.331 0.159 0.742-0.009 0.92-0.376 0-0.001 0.001-0.001 0.001-0.001s-0-0.001 0-0.001c0.025-0.052 0.061-0.121 0.083-0.17 0.094-0.216 0.126-0.402 0.192-0.611 0.176-0.443 0.273-0.908 0.516-1.198 0.066-0.079 0.175-0.11 0.287-0.14l0.151-0.274c1.547 0.594 3.279 0.753 5.009 0.36 0.395-0.090 0.776-0.206 1.144-0.345 0.042 0.075 0.121 0.22 0.142 0.256 0.114 0.037 0.239 0.056 0.34 0.207 0.182 0.31 0.306 0.678 0.457 1.121 0.066 0.209 0.099 0.395 0.194 0.611 0.022 0.049 0.057 0.119 0.083 0.171 0.178 0.369 0.59 0.537 0.922 0.378 0.329-0.159 0.455-0.581 0.284-0.947-0.025-0.053-0.061-0.13-0.087-0.18-0.11-0.209-0.235-0.349-0.358-0.531-0.252-0.395-0.462-0.723-0.591-1.058-0.054-0.173 0.009-0.281 0.051-0.393-0.025-0.029-0.079-0.192-0.111-0.269 1.844-1.089 3.205-2.827 3.843-4.835 0.086 0.014 0.236 0.040 0.285 0.050 0.1-0.066 0.192-0.152 0.373-0.138 0.356 0.051 0.721 0.184 1.162 0.342 0.205 0.079 0.37 0.17 0.598 0.231 0.048 0.013 0.117 0.025 0.172 0.037 0.004 0.001 0.008 0.003 0.013 0.004 0.003 0.001 0.007 0.001 0.010 0.001 0.395 0.085 0.779-0.131 0.86-0.487s-0.171-0.717-0.564-0.812c-0.057-0.013-0.138-0.035-0.194-0.046-0.232-0.044-0.421-0.033-0.64-0.051-0.466-0.049-0.852-0.089-1.195-0.197-0.14-0.054-0.239-0.221-0.288-0.289l-0.269-0.078c0.14-1.010 0.102-2.061-0.14-3.113-0.244-1.061-0.675-2.032-1.249-2.888 0.069-0.063 0.2-0.178 0.236-0.212 0.011-0.12 0.002-0.245 0.125-0.377 0.262-0.246 0.593-0.45 0.991-0.697 0.189-0.111 0.364-0.183 0.554-0.323 0.043-0.032 0.102-0.082 0.147-0.118 0.32-0.255 0.393-0.695 0.164-0.983s-0.675-0.315-0.994-0.060c-0.046 0.036-0.107 0.083-0.148 0.118-0.179 0.154-0.29 0.306-0.44 0.466-0.329 0.334-0.601 0.613-0.899 0.813-0.129 0.075-0.319 0.049-0.405 0.044l-0.254 0.181c-1.446-1.516-3.415-2.486-5.534-2.674-0.006-0.089-0.014-0.249-0.016-0.298-0.087-0.083-0.192-0.154-0.218-0.333-0.029-0.358 0.019-0.744 0.076-1.209 0.031-0.217 0.082-0.398 0.091-0.634 0.002-0.054-0.001-0.131-0.001-0.189-0-0.409-0.299-0.741-0.667-0.741zM15.64 9.698l-0.198 3.497-0.014 0.007c-0.013 0.313-0.271 0.563-0.587 0.563-0.13 0-0.249-0.042-0.346-0.113l-0.006 0.003-2.868-2.033c0.881-0.867 2.009-1.507 3.308-1.802 0.237-0.054 0.475-0.094 0.711-0.123zM17.311 9.698c1.517 0.187 2.92 0.873 3.994 1.926l-2.849 2.020-0.010-0.004c-0.253 0.185-0.609 0.139-0.806-0.108-0.081-0.101-0.123-0.22-0.128-0.34l-0.003-0.001zM10.582 12.929l2.618 2.342-0.003 0.014c0.236 0.205 0.271 0.562 0.074 0.809-0.081 0.101-0.189 0.169-0.305 0.201l-0.003 0.011-3.356 0.969c-0.171-1.562 0.197-3.080 0.974-4.346zM22.35 12.931c0.389 0.631 0.684 1.335 0.859 2.098 0.173 0.754 0.217 1.507 0.145 2.235l-3.373-0.972-0.003-0.014c-0.302-0.083-0.488-0.39-0.417-0.698 0.029-0.126 0.096-0.233 0.187-0.312l-0.001-0.007 2.604-2.331zM15.938 15.452h1.073l0.667 0.833-0.239 1.040-0.963 0.463-0.966-0.464-0.239-1.040zM19.377 18.304c0.046-0.002 0.091 0.002 0.135 0.010l0.006-0.007 3.472 0.587c-0.508 1.427-1.48 2.664-2.779 3.492l-1.348-3.255 0.004-0.006c-0.124-0.288 0-0.625 0.285-0.762 0.073-0.035 0.149-0.055 0.225-0.058zM13.546 18.318c0.265 0.004 0.503 0.188 0.564 0.457 0.029 0.126 0.015 0.251-0.033 0.362l0.010 0.013-1.333 3.222c-1.247-0.8-2.24-1.998-2.771-3.467l3.442-0.584 0.006 0.007c0.039-0.007 0.078-0.011 0.115-0.010zM16.454 19.73c0.092-0.003 0.186 0.016 0.275 0.058 0.117 0.056 0.207 0.145 0.264 0.251h0.013l1.697 3.066c-0.22 0.074-0.447 0.137-0.678 0.189-1.298 0.295-2.591 0.205-3.762-0.194l1.692-3.060h0.003c0.102-0.19 0.294-0.303 0.497-0.311z"></path>
</symbol>
<symbol id="icon-Prometheus_software_logo" viewBox="0 0 32 32">
<title>Prometheus_software_logo</title>
<path fill="#e6522c" style="fill: var(--color8, #e6522c)" d="M15.907 0.187c-8.785 0-15.907 7.121-15.907 15.906s7.122 15.906 15.907 15.906 15.906-7.122 15.906-15.906c0-8.785-7.122-15.906-15.906-15.906zM15.907 29.957c-2.499 0-4.526-1.67-4.526-3.729h9.052c0 2.059-2.026 3.729-4.526 3.729zM23.382 24.994h-14.951v-2.711h14.951v2.711zM23.328 20.887h-14.855c-0.049-0.057-0.1-0.113-0.148-0.171-1.53-1.858-1.891-2.828-2.241-3.817-0.006-0.033 1.856 0.38 3.176 0.677 0 0 0.679 0.157 1.672 0.338-0.954-1.118-1.52-2.539-1.52-3.991 0-3.188 2.445-5.975 1.563-8.227 0.859 0.070 1.777 1.812 1.839 4.536 0.913-1.261 1.295-3.565 1.295-4.978 0-1.462 0.964-3.161 1.928-3.219-0.859 1.416 0.223 2.63 1.184 5.642 0.361 1.131 0.315 3.035 0.593 4.242 0.092-2.508 0.523-6.166 2.114-7.429-0.702 1.591 0.104 3.581 0.655 4.538 0.889 1.544 1.428 2.714 1.428 4.926 0 1.483-0.548 2.88-1.471 3.971 1.050-0.197 1.776-0.375 1.776-0.375l3.411-0.666c0-0-0.495 2.038-2.4 4.001z"></path>
</symbol>
<symbol id="icon-amazonaws" viewBox="0 0 32 32">
<title>amazonaws</title>
<path d="M9.017 13.381c0 0.395 0.043 0.713 0.117 0.947 0.085 0.235 0.192 0.491 0.341 0.768 0.053 0.084 0.075 0.169 0.075 0.244 0 0.107-0.064 0.213-0.203 0.32l-0.671 0.447c-0.077 0.056-0.173 0.091-0.276 0.096l-0.001 0c-0.107 0-0.213-0.053-0.319-0.149-0.138-0.148-0.264-0.312-0.375-0.486l-0.008-0.014c-0.098-0.162-0.208-0.368-0.309-0.579l-0.021-0.049c-0.829 0.979-1.873 1.468-3.129 1.468-0.893 0-1.607-0.255-2.128-0.765-0.521-0.512-0.787-1.192-0.787-2.044 0-0.904 0.319-1.64 0.968-2.192 0.649-0.553 1.511-0.831 2.607-0.831 0.363 0 0.735 0.032 1.128 0.085 0.395 0.053 0.8 0.139 1.224 0.235v-0.777c0-0.809-0.169-1.373-0.5-1.703-0.34-0.331-0.915-0.489-1.733-0.489-0.373 0-0.757 0.041-1.151 0.137s-0.777 0.213-1.149 0.363c-0.101 0.047-0.224 0.094-0.352 0.133l-0.022 0.006c-0.050 0.017-0.108 0.028-0.168 0.031l-0.002 0c-0.149 0-0.224-0.107-0.224-0.329v-0.521c0-0.171 0.021-0.299 0.075-0.373 0.080-0.095 0.18-0.171 0.294-0.221l0.005-0.002c0.372-0.192 0.819-0.352 1.34-0.48 0.48-0.128 1.032-0.202 1.601-0.202 0.021 0 0.043 0 0.064 0l-0.003-0c1.267 0 2.192 0.288 2.788 0.863 0.585 0.573 0.883 1.447 0.883 2.617v3.448zM4.697 15c0.351 0 0.712-0.064 1.096-0.192 0.383-0.128 0.724-0.361 1.011-0.68 0.171-0.203 0.299-0.427 0.363-0.683 0.063-0.255 0.107-0.564 0.107-0.925v-0.447c-0.264-0.069-0.597-0.132-0.935-0.177l-0.045-0.005c-0.3-0.040-0.647-0.063-0.999-0.064h-0.001c-0.713 0-1.235 0.139-1.587 0.427-0.351 0.287-0.52 0.691-0.52 1.223 0 0.5 0.127 0.873 0.393 1.128 0.255 0.267 0.627 0.395 1.117 0.395zM13.244 16.149c-0.192 0-0.32-0.032-0.405-0.107-0.085-0.064-0.16-0.213-0.224-0.415l-2.5-8.228c-0.045-0.124-0.079-0.269-0.095-0.418l-0.001-0.008c0-0.171 0.085-0.267 0.255-0.267h1.044c0.201 0 0.34 0.033 0.413 0.107 0.087 0.064 0.151 0.213 0.213 0.416l1.789 7.045 1.66-7.045c0.053-0.213 0.117-0.352 0.201-0.416 0.109-0.068 0.241-0.108 0.383-0.108 0.015 0 0.031 0 0.046 0.001l-0.002-0h0.851c0.203 0 0.341 0.033 0.427 0.107 0.084 0.064 0.16 0.213 0.201 0.416l1.681 7.131 1.841-7.131c0.064-0.213 0.139-0.352 0.213-0.416 0.105-0.068 0.234-0.108 0.372-0.108 0.015 0 0.030 0 0.045 0.001l-0.002-0h0.991c0.169 0 0.267 0.087 0.267 0.267 0 0.053-0.012 0.107-0.023 0.171-0.019 0.102-0.045 0.191-0.078 0.277l0.004-0.010-2.564 8.227c-0.064 0.213-0.139 0.351-0.224 0.415-0.104 0.067-0.231 0.108-0.367 0.108-0.013 0-0.026-0-0.039-0.001l0.002 0h-0.916c-0.201 0-0.34-0.032-0.427-0.107-0.084-0.075-0.159-0.213-0.2-0.427l-1.651-6.864-1.64 6.853c-0.053 0.213-0.116 0.352-0.2 0.427-0.087 0.075-0.236 0.107-0.427 0.107zM26.919 16.436c-0.553 0-1.107-0.064-1.639-0.191-0.532-0.128-0.947-0.267-1.224-0.427-0.171-0.095-0.287-0.201-0.329-0.297-0.040-0.088-0.063-0.19-0.064-0.298v-0.543c0-0.223 0.085-0.329 0.244-0.329 0.064 0 0.128 0.011 0.192 0.032s0.16 0.064 0.267 0.107c0.361 0.16 0.755 0.287 1.171 0.372 0.425 0.085 0.84 0.128 1.267 0.128 0.669 0 1.192-0.117 1.553-0.352 0.334-0.204 0.554-0.567 0.554-0.981 0-0.010-0-0.021-0-0.031l0 0.002c0-0.009 0-0.019 0-0.030 0-0.278-0.109-0.53-0.287-0.716l0 0c-0.192-0.201-0.555-0.383-1.076-0.553l-1.543-0.48c-0.777-0.244-1.352-0.605-1.703-1.084-0.33-0.422-0.53-0.959-0.533-1.543v-0.001c0-0.447 0.097-0.84 0.288-1.181 0.192-0.34 0.447-0.639 0.767-0.872 0.32-0.245 0.68-0.427 1.107-0.553 0.427-0.128 0.873-0.181 1.341-0.181 0.233 0 0.479 0.011 0.713 0.043 0.244 0.032 0.467 0.075 0.691 0.117 0.213 0.053 0.416 0.107 0.607 0.169 0.192 0.064 0.341 0.128 0.448 0.192 0.128 0.065 0.235 0.155 0.318 0.264l0.002 0.002c0.060 0.089 0.096 0.199 0.096 0.317 0 0.012-0 0.024-0.001 0.035l0-0.002v0.5c0 0.224-0.085 0.341-0.245 0.341-0.151-0.018-0.287-0.063-0.41-0.131l0.006 0.003c-0.579-0.262-1.255-0.415-1.968-0.415-0.026 0-0.053 0-0.079 0.001l0.004-0c-0.607 0-1.087 0.095-1.416 0.297-0.331 0.203-0.5 0.511-0.5 0.947 0 0.299 0.107 0.555 0.32 0.756 0.212 0.203 0.605 0.405 1.169 0.587l1.512 0.477c0.765 0.245 1.32 0.587 1.649 1.023s0.489 0.936 0.489 1.489c0 0.457-0.096 0.873-0.276 1.235-0.192 0.363-0.448 0.681-0.777 0.937-0.331 0.267-0.724 0.457-1.181 0.596-0.48 0.148-0.979 0.223-1.523 0.223zM28.931 21.609c-3.501 2.587-8.589 3.959-12.963 3.959-6.131 0-11.653-2.267-15.827-6.035-0.329-0.297-0.032-0.703 0.363-0.468 4.512 2.617 10.079 4.204 15.836 4.204 3.885 0 8.152-0.809 12.080-2.469 0.585-0.267 1.085 0.383 0.511 0.809z"></path>
<path d="M30.389 19.948c-0.448-0.573-2.96-0.276-4.099-0.137-0.34 0.043-0.393-0.256-0.084-0.48 2-1.404 5.289-1 5.672-0.532 0.383 0.48-0.107 3.768-1.98 5.343-0.287 0.245-0.564 0.117-0.436-0.201 0.427-1.053 1.373-3.427 0.927-3.992z"></path>
</symbol>
<symbol id="icon-azuredevops" viewBox="0 0 32 32">
<title>azuredevops</title>
<path fill="#0078d7" style="fill: var(--color9, #0078d7)" d="M0 11.865l2.996-3.955 11.207-4.555v-3.296l9.827 7.191-20.075 3.896v10.965l-3.955-1.139zM32 5.932v19.536l-7.671 6.532-12.404-4.075v4.075l-7.971-9.888 20.076 2.397v-17.259z"></path>
</symbol>
<symbol id="icon-docker" viewBox="0 0 32 32">
<title>docker</title>
<path fill="#1488c6" style="fill: var(--color10, #1488c6)" d="M6.427 23.033c-0.912 0-1.739-0.747-1.739-1.653s0.747-1.657 1.74-1.657c0.997 0 1.747 0.747 1.747 1.656s-0.829 1.653-1.74 1.653zM27.776 14.016c-0.18-1.323-1-2.4-2.080-3.227l-0.42-0.333-0.339 0.413c-0.659 0.747-0.92 2.071-0.84 3.060 0.080 0.749 0.32 1.493 0.739 2.072-0.339 0.173-0.757 0.333-1.080 0.503-0.76 0.249-1.499 0.333-2.24 0.333h-21.387l-0.080 0.493c-0.16 1.576 0.080 3.227 0.749 4.72l0.325 0.58v0.080c2 3.311 5.56 4.8 9.437 4.8 7.459 0 13.576-3.227 16.476-10.177 1.9 0.083 3.819-0.413 4.72-2.235l0.24-0.413-0.4-0.249c-1.080-0.659-2.56-0.747-3.8-0.413l-0.024 0.003zM17.099 12.693h-3.237v3.227h3.24v-3.229l-0.003 0.004zM17.099 8.636h-3.237v3.227h3.24v-3.223l-0.003-0.004zM17.099 4.497h-3.237v3.227h3.24v-3.227h-0.003zM21.059 12.693h-3.219v3.227h3.227v-3.229l-0.009 0.004zM9.061 12.693h-3.217v3.227h3.229v-3.229l-0.013 0.004zM13.101 12.693h-3.2v3.227h3.219v-3.229l-0.020 0.004zM5.061 12.693h-3.195v3.227h3.237v-3.229l-0.040 0.004zM13.101 8.636h-3.2v3.227h3.219v-3.223l-0.020-0.004zM9.041 8.636h-3.192v3.227h3.217v-3.223l-0.021-0.004z"></path>
</symbol>
<symbol id="icon-git" viewBox="0 0 32 32">
<title>git</title>
<path fill="#f05032" style="fill: var(--color11, #f05032)" d="M31.395 14.573l-13.972-13.971c-0.805-0.804-2.109-0.804-2.917 0l-2.895 2.9 3.68 3.68c0.86-0.287 1.839-0.093 2.519 0.588 0.688 0.687 0.877 1.677 0.584 2.533l3.544 3.547c0.86-0.297 1.849-0.104 2.533 0.58 0.961 0.96 0.961 2.512 0 3.472-0.959 0.959-2.508 0.959-3.467 0-0.719-0.721-0.899-1.783-0.539-2.661l-3.319-3.301v8.7c0.235 0.115 0.456 0.271 0.651 0.464 0.951 0.961 0.951 2.511 0 3.467-0.959 0.961-2.519 0.961-3.479 0-0.959-0.959-0.959-2.505 0-3.464 0.243-0.24 0.516-0.421 0.807-0.541v-8.785c-0.289-0.121-0.565-0.296-0.8-0.535-0.727-0.727-0.901-1.789-0.528-2.679l-3.616-3.633-9.581 9.575c-0.8 0.807-0.8 2.112 0 2.919l13.973 13.969c0.805 0.805 2.109 0.805 2.915 0l13.907-13.907c0.807-0.804 0.807-2.109 0-2.916z"></path>
</symbol>
<symbol id="icon-ubuntu" viewBox="0 0 32 32">
<title>ubuntu</title>
<path fill="#e95420" style="fill: var(--color12, #e95420)" d="M16 0c8.831 0 16 7.169 16 16s-7.169 16-16 16-16-7.169-16-16 7.169-16 16-16zM20.372 23.573c-1.021 0.588-1.372 1.896-0.781 2.919 0.588 1.020 1.896 1.371 2.917 0.779 1.021-0.588 1.372-1.896 0.78-2.919-0.588-1.020-1.895-1.371-2.916-0.779zM16 22.24c-0.94 0-1.831-0.209-2.628-0.58l-1.484 2.66c1.24 0.612 2.637 0.961 4.112 0.961 0.861 0 1.691-0.121 2.48-0.341 0.139-0.857 0.647-1.645 1.46-2.116 0.812-0.468 1.751-0.515 2.56-0.208 1.581-1.551 2.609-3.665 2.76-6.020l-3.047-0.044c-0.28 3.188-2.953 5.688-6.213 5.688zM9.76 16c0-2.111 1.049-3.975 2.653-5.107l-1.56-2.615c-1.872 1.24-3.26 3.159-3.841 5.38 0.675 0.539 1.107 1.379 1.107 2.32 0 0.939-0.432 1.759-1.107 2.319 0.581 2.22 1.969 4.139 3.841 5.379l1.56-2.62c-1.604-1.096-2.653-2.957-2.653-5.056zM5.12 13.864c-1.18 0-2.136 0.956-2.136 2.136s0.956 2.136 2.136 2.136 2.135-0.956 2.135-2.136-0.955-2.136-2.135-2.136zM16 9.76c3.26 0 5.933 2.5 6.213 5.687l3.047-0.045c-0.151-2.353-1.18-4.467-2.76-6.021-0.812 0.309-1.751 0.259-2.56-0.205-0.812-0.469-1.32-1.26-1.46-2.121-0.792-0.213-1.619-0.333-2.48-0.333-1.48 0-2.873 0.347-4.112 0.96l1.484 2.66c0.8-0.372 1.691-0.58 2.628-0.58zM20.372 8.425c1.020 0.589 2.328 0.241 2.919-0.78 0.588-1.020 0.241-2.328-0.784-2.92-1.020-0.587-2.328-0.239-2.919 0.785-0.588 1.019-0.24 2.325 0.784 2.915z"></path>
</symbol>
<symbol id="icon-jenkins" viewBox="0 0 32 32">
<title>jenkins</title>
<path fill="#d24939" style="fill: var(--color13, #d24939)" d="M3.831 32h-1.3c-0.033-0.088-0.065-0.175-0.093-0.263-0.287-0.888-0.792-1.987-0.923-2.872-0.195-1.312 1.040-1.385 1.832-1.953 1.22-0.88 2.18-1.367 3.503-2.161 0.393-0.237 1.576-0.831 1.708-1.104 0.268-0.544-0.46-1.309-0.653-1.735-0.3-0.675-0.46-1.248-0.501-1.912-1.099-0.175-1.94-0.836-2.459-1.58-0.84-1.233-1.421-3.513-0.7-5.248 0.060-0.137 0.339-0.407 0.38-0.617 0.080-0.412-0.14-0.96-0.161-1.399-0.080-2.256 0.38-4.2 1.901-4.88 0.617-2.453 2.817-3.271 4.897-4.489 0.775-0.456 1.632-0.749 2.52-1.076 3.163-1.169 8.037-0.949 10.66 1.044 1.115 0.844 2.901 2.628 3.541 3.919 1.683 3.407 1.56 9.101 0.383 13.247-0.161 0.561-0.388 1.376-0.711 2.044-0.224 0.465-0.919 1.4-0.833 1.813 0.085 0.419 1.585 1.56 1.909 1.86 0.579 0.563 1.68 1.3 1.765 2 0.093 0.743-0.331 1.781-0.547 2.5-0.289 0.961-0.581 1.921-0.872 2.841l-25.247 0.021zM18.636 27.279c-0.727-0.399-1.815-0.828-2.753-1.008-1.159-0.219-1.039 1.584-1 2.659 0.040 0.857 0.481 1.755 0.681 2.325 0.1 0.263 0.119 0.547 0.34 0.599 0.4 0.091 1.72-0.435 2.1-0.639 0.8-0.437 1.419-1.125 2.099-1.585 0.021-0.227 0.021-0.453 0.041-0.677-0.401-0.197-0.86-0.344-1.461-0.369 0.419-0.2 1-0.2 1.38-0.443l0.021-0.257c-0.661-0.041-0.919-0.339-1.361-0.581l-0.087-0.023zM28.576 31.193c0.257-0.825 0.479-1.628 0.62-2.336 0.079-0.383 0.287-1.224 0.237-1.568-0.079-0.612-0.912-1.065-1.339-1.448-0.779-0.7-1.268-1.3-2.081-1.959-0.331 0.5-1.039 0.82-1.309 1.219 1.929-0.919 2.279 3.5 1.521 4.919 0.12 0.44 0.521 0.601 0.685 0.981l-0.115 0.221h1.719c0.019 0 0.041 0 0.060 0.019l0.001-0.048zM19.729 31.177c-0.065-0.099-0.133-0.18-0.2-0.279l-0.401 0.26h0.601v0.019zM23.424 31.177c0.011-0.279 0.024-0.539 0.039-0.797-0.705 0.039-1.099-0.64-1.593-0.703-0.432-0.060-0.8 0.481-1.36 0.26-0.128 0.14-0.245 0.303-0.38 0.421 0.205 0.24 0.393 0.5 0.565 0.779h1.088c0.019-0.219 0.18-0.38 0.399-0.38 0.221 0 0.38 0.161 0.38 0.36h0.88l-0.017 0.060zM26.245 31.177c-0.419-0.639-1.263-1.197-2.24-0.74l-0.041 0.721h2.281v0.019zM14.899 31.177l-0.14-0.459c-0.3-0.961-0.479-1.68-0.54-2.24-1.219-0.581-2.5-1.161-3.539-1.901-0.2-0.14-1.479-1.8-1.64-1.74-2.319 0.901-4.479 2.479-6.419 3.979 0.341 0.743 0.64 1.521 0.92 2.32h11.34l0.017 0.041zM25.919 28.36c-0.039-0.683-0.219-2.081-0.64-2.32-0.88-0.521-2.461 1.039-3.12 1.257 0.060 0.2 0.18 0.361 0.2 0.64 0.38-0.099 0.86-0.039 1.197 0.123-0.399 0.039-0.839 0.039-1.099 0.219-0.099 0.26 0.021 0.64-0.039 1.019 0.919 0.263 2 0.404 3.18 0.443 0.219-0.303 0.3-0.86 0.281-1.443l0.039 0.063zM20.479 27.88c-0.060 0.5 0.060 0.68 0.159 1.257 1.68 0.521 1.38-2.32-0.18-1.279l0.021 0.021zM11.681 26c-0.6 0.609 1.695 1.443 2.419 1.487 0-0.388 0.22-0.752 0.18-1.028-0.865-0.156-2.003-0.055-2.593-0.461l-0.005 0.003zM19.101 26.287c0 0.057-0.081 0.039-0.091 0.085 0.773 0.601 1.352 0.727 2.404 0.68 0.472-0.349 0.893-0.751 1.391-1.076-1.14 0.099-2.576 0.809-3.7 0.305l-0.004 0.005zM23.661 2.651c-2.14-1.208-5.8-2.121-8.101-0.975-1.84 0.923-4.36 2.455-5.199 4.389 0.8 1.869-0.221 3.581-0.301 5.479-0.024 1.011 0.48 1.893 0.521 2.991-0.267 0.451-1.1 0.507-1.68 0.475-0.195-0.972-0.535-2.065-1.54-2.175-1.419-0.153-2.46 1.020-2.521 2.245-0.080 1.439 1.112 3.819 2.781 3.66 0.651-0.061 0.811-0.721 1.519-0.721 0.38 0.76-0.593 1-0.697 1.54-0.021 0.14 0.079 0.681 0.139 0.94 0.311 1.259 0.992 2.879 1.66 3.84 0.847 1.2 2.512 1.401 4.305 1.521 0.32-0.7 1.5-0.64 2.275-0.461-0.921-0.36-1.781-1.26-2.5-2.039-0.82-0.901-1.64-1.88-1.681-3.040 1.54 2.139 2.8 3.999 5.601 4.939 2.12 0.7 4.599-0.339 6.219-1.479 0.68-0.479 1.081-1.24 1.56-1.919 1.8-2.581 2.64-6.28 2.461-9.86-0.081-1.481-0.081-2.961-0.581-3.94-0.519-1.041-2.26-1.961-3.3-1.041-0.2-1.019 0.839-1.639 2.060-1.279-0.88-1.14-1.781-2.479-3.021-3.18l0.023 0.089zM18.109 19.861c0.82 2.059 3.633 1.817 6.008 1.764-0.112 0.259-0.341 0.58-0.62 0.687-0.76 0.309-2.861 0.544-3.917-0.016-0.675-0.361-1.099-1.164-1.469-1.636-0.183-0.229-1.060-0.811-0.016-0.812l0.015 0.013zM18.328 18.7c1.191 0.62 3.36 0.691 4.976 0.64 0.088 0.357 0.088 0.792 0.091 1.219-2.068 0.107-4.516-0.405-5.060-1.86h-0.007zM27.229 17.92c-0.631 1.2-1.527 2.529-3.385 2.571-0.031-0.379-0.060-0.98 0-1.205 1.419-0.137 2.303-0.861 3.391-1.356l-0.005-0.009zM26.364 17.031c-1.36 0.88-2.872 1.833-5.099 1.613-0.469-0.413-0.648-1.335-0.188-1.944 0.243 0.417 0.081 1.18 0.76 1.292 1.26 0.221 2.719-0.771 3.64-1.12 0.56-0.949-0.060-1.3-0.56-1.909-1.041-1.241-2.44-2.8-2.401-4.68 0.419-0.3 0.461 0.46 0.521 0.599 0.539 1.281 1.899 2.901 2.899 4 0.24 0.281 0.64 0.521 0.68 0.7 0.123 0.519-0.339 1.139-0.279 1.479l0.027-0.029zM8.444 16.131c-0.419-0.245-0.524-1.32-1.024-1.347-0.713-0.040-0.584 1.399-0.581 2.239-0.493-0.439-0.58-1.819-0.219-2.52-0.411-0.2-0.593 0.22-0.824 0.38 0.293-2.12 3.12-0.979 2.652 1.28l-0.004-0.032zM6.285 7.992c-0.913 1.008-0.72 2.899-0.612 4.251 1.659-1.047 3.864 0.080 3.844 1.86 0.793-0.021 0.297-0.992 0.153-1.62-0.471-2.039 0.789-4.251 0.055-6.12-1.419 0.111-2.585 0.692-3.437 1.619l-0.003 0.011zM18.445 9.476c0.409 0.749 0.539 1.531 1.12 2.093 0.26 0.255 0.765 0.565 0.516 1.268-0.060 0.161-0.487 0.521-0.735 0.6-0.899 0.26-3.005 0.040-2.295-1.080 0.751 0.020 1.752 0.479 2.309-0.060-0.419-0.7-1.18-2.040-0.899-2.84l-0.017 0.019zM26.711 9.459h0.091c0.44 0.891 0.8 1.833 1.339 2.62-0.36 0.839-2.737 1.587-2.697 0.076 0.519-0.227 1.399-0.047 1.86-0.333-0.257-0.741-0.64-1.341-0.579-2.361l-0.013-0.001zM17.473 7.303c-1.896-0.44-2.841 0.789-3.413 2.071-0.512-0.125-0.308-0.82-0.18-1.177 0.34-0.935 1.707-2.177 2.825-2.008 0.479 0.076 1.131 0.515 0.768 1.112v0.003zM12.857 2.123c-2.080 0.587-4.747 2.099-5.6 3.965 0.66-0.093 1.12-0.428 1.773-0.468 0.248-0.021 0.571 0.099 0.855 0.020 0.565-0.139 1.040-1.42 1.469-1.879 0.415-0.461 0.913-0.663 1.255-1.081 0.221-0.12 0.544-0.099 0.56-0.44-0.099-0.1-0.2-0.18-0.311-0.14v0.023z"></path>
</symbol>
<symbol id="icon-debian" viewBox="0 0 32 32">
<title>debian</title>
<path fill="#a81d33" style="fill: var(--color14, #a81d33)" d="M18.507 16.907c-0.533 0 0.107 0.267 0.8 0.373 0.187-0.133 0.36-0.293 0.52-0.44-0.258 0.059-0.555 0.093-0.859 0.093-0.162 0-0.323-0.010-0.48-0.029l0.019 0.002zM21.36 16.2c0.307-0.44 0.533-0.92 0.627-1.413-0.080 0.36-0.267 0.667-0.44 0.973-1 0.627-0.093-0.36 0-0.747-1.067 1.347-0.147 0.8-0.187 1.187zM22.4 13.467c0.067-0.96-0.187-0.667-0.267-0.293 0.093 0.053 0.173 0.667 0.267 0.293zM16.507 0.413c0.267 0.053 0.6 0.093 0.56 0.16 0.307-0.067 0.373-0.133-0.573-0.16zM17.067 0.573l-0.2 0.040 0.187-0.013v-0.027z"></path>
<path fill="#a81d33" style="fill: var(--color14, #a81d33)" d="M25.893 13.827c0.027 0.853-0.267 1.267-0.507 2l-0.467 0.24c-0.373 0.72 0.040 0.467-0.227 1.040-0.587 0.52-1.787 1.627-2.16 1.733-0.267 0 0.187-0.333 0.253-0.453-0.787 0.533-0.64 0.8-1.827 1.133l-0.040-0.080c-2.96 1.387-7.067-1.36-7-5.12-0.040 0.227-0.093 0.173-0.16 0.267-0.011-0.12-0.017-0.259-0.017-0.4 0-1.869 1.083-3.485 2.656-4.254l0.028-0.012c0.586-0.301 1.279-0.478 2.013-0.478 1.137 0 2.175 0.424 2.965 1.122l-0.005-0.004c-0.822-1.059-2.096-1.734-3.527-1.734-0.035 0-0.070 0-0.105 0.001l0.005-0c-1.573 0.013-3.040 1.013-3.533 2.093-0.8 0.507-0.893 1.96-1.24 2.213-0.48 3.467 0.88 4.96 3.173 6.72 0.36 0.253 0.107 0.28 0.16 0.467-0.802-0.386-1.481-0.907-2.034-1.539l-0.006-0.007c0.307 0.44 0.627 0.88 1.067 1.213-0.733-0.24-1.693-1.733-1.973-1.8 1.24 2.213 5.040 3.893 7.013 3.067-0.175 0.013-0.379 0.021-0.585 0.021-0.901 0-1.768-0.144-2.58-0.411l0.058 0.017c-0.44-0.213-1.027-0.68-0.933-0.76 0.885 0.382 1.916 0.605 2.998 0.605 1.852 0 3.551-0.651 4.883-1.736l-0.014 0.011c0.587-0.467 1.24-1.253 1.427-1.267-0.267 0.427 0.053 0.213-0.16 0.587 0.587-0.96-0.267-0.4 0.613-1.653l0.32 0.44c-0.12-0.8 0.987-1.76 0.88-3.013 0.253-0.4 0.267 0.4 0 1.293 0.387-0.987 0.107-1.133 0.2-1.947 0.107 0.267 0.24 0.56 0.307 0.84-0.24-0.933 0.267-1.6 0.373-2.133-0.12-0.067-0.373 0.4-0.427-0.707 0-0.493 0.133-0.267 0.187-0.373-0.107-0.067-0.347-0.427-0.507-1.147 0.107-0.173 0.293 0.44 0.453 0.453-0.107-0.56-0.267-1-0.267-1.44-0.453-0.907-0.16 0.133-0.533-0.4-0.453-1.453 0.4-0.333 0.453-0.987 0.72 1.027 1.12 2.613 1.307 3.28-0.133-0.8-0.373-1.6-0.653-2.347 0.213 0.093-0.347-1.653 0.28-0.493-0.859-2.533-2.59-4.58-4.827-5.826l-0.053-0.027c0.24 0.227 0.56 0.52 0.44 0.56-1-0.6-0.827-0.64-0.973-0.893-0.813-0.333-0.867 0.027-1.413 0-1.547-0.827-1.84-0.733-3.253-1.267l0.067 0.307c-1.027-0.333-1.2 0.133-2.307 0-0.067-0.053 0.36-0.187 0.707-0.24-0.987 0.133-0.933-0.187-1.907 0.040 0.227-0.173 0.48-0.28 0.733-0.427-0.8 0.053-1.92 0.467-1.573 0.093-1.32 0.6-3.653 1.427-4.96 2.653l-0.040-0.293c-0.6 0.72-2.613 2.147-2.773 3.080l-0.173 0.040c-0.307 0.533-0.507 1.133-0.76 1.68-0.4 0.693-0.6 0.267-0.533 0.373-0.8 1.627-1.2 3-1.547 4.133 0.24 0.36 0 2.2 0.093 3.68-0.4 7.28 5.12 14.36 11.147 16 0.893 0.307 2.2 0.307 3.32 0.333-1.32-0.373-1.493-0.2-2.773-0.653-0.933-0.427-1.133-0.933-1.787-1.507l0.267 0.467c-1.293-0.453-0.76-0.56-1.813-0.893l0.28-0.36c-0.413-0.040-1.107-0.707-1.293-1.080l-0.453 0.013c-0.547-0.667-0.84-1.16-0.813-1.547l-0.147 0.267c-0.173-0.28-2.027-2.533-1.067-2.013-0.173-0.16-0.413-0.267-0.667-0.733l0.187-0.227c-0.467-0.587-0.853-1.36-0.827-1.6 0.267 0.32 0.427 0.4 0.6 0.44-1.173-2.893-1.24-0.16-2.133-2.933l0.2-0.027c-0.133-0.213-0.24-0.453-0.347-0.68l0.080-0.8c-0.84-0.987-0.24-4.133-0.12-5.867 0.093-0.72 0.707-1.467 1.173-2.64l-0.28-0.053c0.533-0.947 3.12-3.827 4.32-3.68 0.573-0.733-0.12 0-0.24-0.187 1.28-1.32 1.68-0.933 2.533-1.173 0.933-0.533-0.8 0.213-0.36-0.2 1.6-0.4 1.133-0.933 3.227-1.133 0.213 0.133-0.52 0.187-0.693 0.347 1.333-0.653 4.2-0.493 6.080 0.36 2.173 1.027 4.613 4.013 4.707 6.84l0.107 0.027c-0.053 1.133 0.173 2.427-0.227 3.613l0.267-0.56z"></path>
<path fill="#a81d33" style="fill: var(--color14, #a81d33)" d="M12.72 17.64l-0.067 0.373c0.347 0.467 0.627 0.973 1.067 1.347-0.32-0.627-0.56-0.88-1-1.733zM13.547 17.6c-0.187-0.2-0.293-0.453-0.413-0.693 0.107 0.427 0.347 0.8 0.573 1.173l-0.16-0.48zM28.133 14.427l-0.093 0.2c-0.133 1.013-0.453 2.013-0.92 2.947 0.533-0.973 0.867-2.053 1-3.147zM16.6 0.16c0.36-0.133 0.88-0.067 1.267-0.16-0.493 0.040-0.987 0.067-1.467 0.133l0.2 0.027zM4.013 6.853c0.093 0.76-0.573 1.067 0.147 0.56 0.4-0.88-0.147-0.24-0.133-0.56zM3.173 10.4c0.16-0.52 0.2-0.827 0.267-1.12-0.467 0.587-0.227 0.707-0.267 1.107z"></path>
</symbol>
<symbol id="icon-digitalocean" viewBox="0 0 32 32">
<title>digitalocean</title>
<path fill="#0080ff" style="fill: var(--color15, #0080ff)" d="M1.115 25.82h-0.005v-3.98h3.98v3.98h4.751v-6.18h6.18v6.16c6.569-0.008 11.64-6.511 9.136-13.421-0.931-2.56-2.973-4.6-5.533-5.528-6.92-2.511-13.427 2.573-13.427 9.149h-6.196c0-10.475 10.12-18.635 21.099-15.207 4.8 1.5 8.608 5.309 10.107 10.107 3.427 10.98-4.728 21.1-15.205 21.1v-6.18h-6.164v4.747h-4.747v-4.747h-3.976z"></path>
</symbol>
<symbol id="icon-grafana" viewBox="0 0 32 32">
<title>grafana</title>
<path fill="#f46800" style="fill: var(--color16, #f46800)" d="M30.665 14.168c-0.057-0.54-0.141-1.164-0.312-1.845s-0.455-1.42-0.824-2.215c-0.397-0.767-0.88-1.591-1.533-2.357-0.256-0.312-0.54-0.596-0.824-0.908 0.455-1.789-0.54-3.351-0.54-3.351-1.732-0.113-2.811 0.54-3.208 0.824-0.057-0.028-0.141-0.057-0.199-0.085-0.284-0.113-0.596-0.227-0.908-0.341-0.312-0.085-0.625-0.199-0.937-0.256-0.312-0.085-0.653-0.141-0.993-0.199-0.057 0-0.113-0.028-0.171-0.028-0.739-2.385-2.896-3.407-2.896-3.407-2.471 1.591-2.953 3.72-2.953 3.72s0 0.057-0.028 0.113c-0.141 0.028-0.256 0.085-0.397 0.113-0.171 0.057-0.369 0.113-0.54 0.199s-0.369 0.141-0.54 0.227c-0.369 0.171-0.709 0.341-1.079 0.54-0.391 0.22-0.716 0.427-1.028 0.649l0.035-0.024c-0.057-0.028-0.085-0.057-0.085-0.057-3.323-1.277-6.275 0.256-6.275 0.256-0.256 3.549 1.335 5.764 1.647 6.161-0.085 0.227-0.141 0.425-0.227 0.653-0.231 0.704-0.42 1.539-0.532 2.399l-0.008 0.072c-0.028 0.113-0.028 0.256-0.057 0.369-3.067 1.505-3.975 4.628-3.975 4.628 2.556 2.953 5.565 3.124 5.565 3.124 0.408 0.733 0.84 1.365 1.324 1.953l-0.018-0.022c0.199 0.256 0.425 0.483 0.653 0.739-0.937 2.669 0.141 4.912 0.141 4.912 2.868 0.113 4.741-1.249 5.139-1.561l0.852 0.256c0.88 0.227 1.789 0.369 2.669 0.397h1.164c1.335 1.931 3.72 2.187 3.72 2.187 1.675-1.789 1.789-3.521 1.789-3.919v-0.171c0.341-0.256 0.681-0.511 1.023-0.795 0.681-0.596 1.249-1.307 1.76-2.044 0.057-0.057 0.085-0.141 0.141-0.199 1.903 0.113 3.237-1.192 3.237-1.192-0.312-1.988-1.448-2.953-1.675-3.124l-0.084-0.084c0-0.113 0.028-0.227 0.028-0.369 0.028-0.227 0.028-0.425 0.028-0.653v-0.824c0-0.057 0-0.113-0.028-0.171l-0.057-0.341c-0.028-0.227-0.085-0.425-0.113-0.653-0.216-0.903-0.549-1.699-0.986-2.423l0.021 0.038c-0.462-0.738-0.997-1.373-1.61-1.923l-0.008-0.007c-0.586-0.52-1.26-0.958-1.994-1.287l-0.050-0.020c-0.653-0.312-1.412-0.533-2.21-0.622l-0.033-0.003c-0.369-0.057-0.767-0.057-1.136-0.057h-0.568c-0.199 0.028-0.397 0.057-0.568 0.085-0.767 0.141-1.476 0.425-2.101 0.795s-1.164 0.852-1.619 1.391c-0.425 0.492-0.771 1.066-1.010 1.693l-0.013 0.039c-0.227 0.596-0.369 1.249-0.397 1.845v0.681c0 0.085 0 0.141 0.028 0.227 0.095 0.918 0.432 1.742 0.946 2.426l-0.009-0.012c0.341 0.455 0.709 0.795 1.136 1.079 0.425 0.284 0.852 0.483 1.307 0.625s0.88 0.199 1.277 0.171h0.595c0.057 0 0.113-0.028 0.141-0.028 0.057 0 0.085-0.028 0.141-0.028 0.085-0.028 0.199-0.057 0.284-0.085 0.171-0.057 0.341-0.141 0.511-0.199 0.171-0.085 0.312-0.171 0.425-0.256 0.028-0.028 0.085-0.057 0.113-0.085 0.078-0.059 0.127-0.151 0.127-0.255 0-0.076-0.026-0.145-0.070-0.2l0 0.001c-0.072-0.070-0.17-0.114-0.278-0.114-0.053 0-0.104 0.010-0.15 0.029l0.003-0.001c-0.028 0.028-0.057 0.028-0.113 0.057-0.105 0.055-0.228 0.103-0.356 0.138l-0.013 0.003c-0.141 0.028-0.284 0.085-0.425 0.113-0.085 0-0.141 0.028-0.227 0.028h-0.481s-0.028 0 0 0h-0.115c-0.029 0-0.085 0-0.113-0.028-0.312-0.057-0.653-0.141-0.965-0.284s-0.625-0.341-0.88-0.596c-0.284-0.256-0.511-0.54-0.709-0.88s-0.312-0.709-0.369-1.079c-0.028-0.199-0.057-0.397-0.028-0.596v-0.171c0 0.028 0 0 0 0v-0.143c0-0.113 0.028-0.199 0.057-0.312 0.16-0.912 0.597-1.701 1.22-2.299l0.001-0.001c0.171-0.171 0.341-0.312 0.54-0.425 0.199-0.141 0.397-0.256 0.596-0.341s0.425-0.171 0.653-0.227c0.227-0.057 0.455-0.113 0.681-0.113 0.113 0 0.227-0.028 0.341-0.028h0.227c0.028 0 0 0 0 0h0.113c0.802 0.069 1.535 0.303 2.186 0.667l-0.027-0.014c0.908 0.511 1.675 1.277 2.129 2.215 0.227 0.455 0.397 0.965 0.483 1.505 0.028 0.141 0.028 0.256 0.057 0.397v0.739c0 0.141-0.028 0.284-0.028 0.425-0.028 0.141-0.028 0.284-0.057 0.425l-0.085 0.425c-0.028 0.141-0.171 0.54-0.256 0.824s-0.483 1.051-0.824 1.505c-0.689 0.936-1.587 1.679-2.627 2.169l-0.042 0.018c-0.54 0.227-1.079 0.425-1.647 0.511-0.256 0.054-0.55 0.085-0.852 0.085-0 0-0 0-0 0h-0.425c0.028 0 0 0 0 0h-0.028c-0.141 0-0.312 0-0.455-0.028-0.625-0.057-1.221-0.171-1.817-0.341s-1.164-0.397-1.704-0.681c-1.107-0.603-2.040-1.382-2.797-2.311l-0.013-0.017c-0.369-0.483-0.709-0.993-0.993-1.533s-0.483-1.108-0.653-1.675c-0.157-0.521-0.259-1.124-0.284-1.746l-0-0.014v-0.88c0-0.284 0.028-0.596 0.085-0.908 0.028-0.312 0.085-0.596 0.141-0.908s0.141-0.596 0.227-0.908 0.369-1.164 0.625-1.704c0.511-1.079 1.164-2.044 1.931-2.811 0.199-0.199 0.397-0.369 0.625-0.54 0.085-0.085 0.284-0.256 0.511-0.397s0.455-0.284 0.709-0.397c0.113-0.057 0.227-0.113 0.369-0.171 0.057-0.028 0.113-0.057 0.199-0.085 0.057-0.028 0.113-0.057 0.199-0.085 0.256-0.113 0.511-0.199 0.767-0.284 0.057-0.028 0.141-0.028 0.199-0.057s0.141-0.028 0.199-0.057 0.256-0.057 0.397-0.113c0.057-0.028 0.141-0.028 0.199-0.057 0.057 0 0.141-0.028 0.199-0.028s0.141-0.028 0.199-0.028l0.227-0.057c0.057 0 0.141-0.028 0.199-0.028 0.085 0 0.141-0.028 0.227-0.028 0.057 0 0.171-0.028 0.227-0.028s0.085 0 0.141-0.028h0.199c0.085 0 0.141 0 0.227-0.028h0.113s0.028 0 0 0h1.051c0.511 0.028 1.023 0.085 1.505 0.171 1.023 0.181 1.937 0.497 2.779 0.933l-0.054-0.025c0.845 0.412 1.573 0.895 2.228 1.459l-0.013-0.011c0.028 0.028 0.085 0.057 0.113 0.113 0.028 0.028 0.085 0.057 0.113 0.113 0.085 0.057 0.141 0.141 0.227 0.199s0.141 0.141 0.227 0.199c0.057 0.085 0.141 0.141 0.199 0.227 0.737 0.756 1.363 1.626 1.847 2.58l0.028 0.060c0.028 0.028 0.028 0.057 0.057 0.113 0.028 0.028 0.028 0.057 0.057 0.113s0.057 0.141 0.113 0.199c0.028 0.057 0.057 0.141 0.085 0.199s0.057 0.141 0.085 0.199c0.113 0.256 0.199 0.511 0.284 0.767 0.141 0.397 0.227 0.739 0.312 1.023 0.033 0.114 0.134 0.196 0.256 0.199h0c0.141 0 0.227-0.113 0.227-0.256-0.028-0.341-0.028-0.709-0.057-1.136z"></path>
</symbol>
<symbol id="icon-arrow-thin-up" viewBox="0 0 20 20">
<title>arrow-thin-up</title>
<path d="M9 3.828l-6.071 6.071-1.414-1.414 8.485-8.485 8.485 8.485-1.414 1.414-6.071-6.071v16.172h-2v-16.172z"></path>
</symbol>
<symbol id="icon-arrow-thin-down" viewBox="0 0 20 20">
<title>arrow-thin-down</title>
<path d="M9 16.172l-6.071-6.071-1.414 1.414 8.485 8.485 8.485-8.485-1.414-1.414-6.071 6.071v-16.172h-2z"></path>
</symbol>
<symbol id="icon-phone" viewBox="0 0 32 32">
<title>phone</title>
<path d="M21.999 4h-12c-1.104 0-1.999 0.896-1.999 2v20c0 1.104 0.895 2 1.999 2h12c1.105 0 2.001-0.896 2.001-2v-20c0-1.104-0.896-2-2.001-2zM13 5h5l0.062 1h-5.062v-1zM15.979 26.5c-0.552 0-1-0.447-1-1s0.448-1 1-1c0.553 0 1 0.447 1 1s-0.448 1-1 1zM21.999 23h-12l0.021-16h11.979v16z"></path>
</symbol>
<symbol id="icon-cogs" viewBox="0 0 32 32">
<title>cogs</title>
<path d="M21.268 22.039l0.709-0.709c0.783-0.783 0.783-2.053 0-2.836l-1.224-1.223c0.394-0.686 0.703-1.424 0.918-2.203h1.324c1.107 0 2.005-0.898 2.005-2.005v-1.002c0-1.107-0.897-2.005-2.005-2.005h-1.308c-0.208-0.771-0.503-1.505-0.887-2.186l1.177-1.176c0.783-0.783 0.783-2.053 0-2.836l-0.709-0.708c-0.783-0.783-2.053-0.783-2.836 0l-1.153 1.153c-0.705-0.411-1.467-0.731-2.272-0.951v-1.347c-0.001-1.108-0.899-2.005-2.006-2.005h-1.002c-1.107 0-2.006 0.897-2.006 2.005v1.347c-0.805 0.22-1.566 0.54-2.272 0.951l-1.154-1.154c-0.782-0.783-2.052-0.783-2.835 0l-0.709 0.708c-0.783 0.783-0.783 2.053 0 2.836l1.176 1.177c-0.383 0.681-0.68 1.415-0.887 2.187h-1.307c-1.108-0.001-2.005 0.897-2.005 2.005v1.002c0 1.107 0.897 2.005 2.005 2.005h1.323c0.216 0.779 0.524 1.517 0.919 2.203l-1.224 1.223c-0.783 0.783-0.783 2.053 0 2.836l0.709 0.709c0.783 0.783 2.053 0.783 2.835 0l1.231-1.231c0.684 0.389 1.419 0.692 2.194 0.903v1.284c0 1.106 0.898 2.005 2.006 2.005h1.002c1.107 0 2.005-0.898 2.005-2.005v-1.284c0.775-0.211 1.512-0.515 2.194-0.903l1.231 1.231c0.785 0.782 2.054 0.782 2.838-0.001zM12.5 18.107c-3.045 0-5.514-2.468-5.514-5.514s2.469-5.514 5.514-5.514 5.514 2.469 5.514 5.514c0 3.046-2.469 5.514-5.514 5.514zM12.5 10.025c-1.385 0-2.507 1.122-2.507 2.506s1.122 2.506 2.507 2.506c1.384 0 2.506-1.122 2.506-2.506s-1.122-2.506-2.506-2.506zM25.062 28.862c-0.672 0-1.216 0.544-1.216 1.216 0 0.671 0.544 1.215 1.216 1.215 0.671 0 1.216-0.544 1.216-1.215 0-0.672-0.545-1.216-1.216-1.216zM30.152 28.877h-0.634c-0.101-0.374-0.245-0.73-0.431-1.061l0.57-0.57c0.38-0.38 0.38-0.996 0-1.375l-0.344-0.344c-0.38-0.38-0.995-0.38-1.375 0l-0.56 0.559c-0.342-0.199-0.712-0.354-1.102-0.461v-0.652c0-0.537-0.436-0.973-0.973-0.973h-0.486c-0.537 0-0.973 0.436-0.973 0.973v0.652c-0.391 0.107-0.76 0.262-1.102 0.461l-0.56-0.559c-0.38-0.38-0.996-0.38-1.375 0l-0.344 0.344c-0.38 0.379-0.38 0.995 0 1.375l0.57 0.57c-0.187 0.33-0.33 0.687-0.431 1.061h-0.634c-0.537 0-0.973 0.436-0.973 0.973v0.486c0 0.537 0.436 0.973 0.973 0.973h0.642c0.104 0.377 0.254 0.735 0.445 1.068l-0.593 0.593c-0.38 0.38-0.38 0.995 0 1.376l0.344 0.344c0.379 0.379 0.995 0.379 1.375 0l0.597-0.598c0.332 0.188 0.688 0.336 1.064 0.438v0.623c0 0.537 0.436 0.973 0.973 0.973h0.486c0.537 0 0.973-0.436 0.973-0.973v-0.623c0.376-0.102 0.732-0.249 1.063-0.438l0.598 0.598c0.38 0.379 0.995 0.379 1.375 0l0.344-0.344c0.38-0.381 0.38-0.996 0-1.376l-0.593-0.593c0.19-0.333 0.341-0.691 0.445-1.068h0.642c0.537 0 0.973-0.436 0.973-0.973v-0.486c0.004-0.538-0.432-0.973-0.969-0.973zM25.062 32.782c-1.477 0-2.674-1.197-2.674-2.675 0-1.477 1.197-2.674 2.674-2.674s2.674 1.197 2.674 2.674c0 1.478-1.197 2.675-2.674 2.675z"></path>
</symbol>
<symbol id="icon-chronometer" viewBox="0 0 32 32">
<title>chronometer</title>
<path d="M28.054 18.571c0 6.933-5.62 12.554-12.554 12.554s-12.554-5.621-12.554-12.554c0-6.722 5.286-12.192 11.927-12.521v-2.166h-0.941c-0.555 0-1.005-0.45-1.005-1.005s0.45-1.004 1.005-1.004h3.012c0.555 0 1.005 0.449 1.005 1.004s-0.45 1.005-1.005 1.005h-1.066v2.153c6.757 0.2 12.176 5.729 12.176 12.534zM14.873 9.909v-2.291c-3.109 0.176-5.866 1.64-7.766 3.858l1.653 1.653-0.71 0.711-1.565-1.566c-1.274 1.798-2.032 3.987-2.032 6.359 0 0.106 0.015 0.251 0.015 0.251h2.432v1.005h-2.36c0.244 2.052 1.057 3.987 2.268 5.534l1.243-1.243 0.71 0.71-1.296 1.297c1.879 1.996 4.488 3.297 7.408 3.462v-2.729h1.004v2.742c2.989-0.102 5.67-1.393 7.599-3.41l-1.424-1.424 0.71-0.71 1.377 1.376c1.24-1.56 2.074-3.521 2.322-5.604h-2.55v-1.005h2.621c0.003-0.104 0.016-0.145 0.016-0.251 0-2.438-0.8-4.681-2.138-6.505l-1.648 1.648-0.71-0.71 1.726-1.725c-1.947-2.203-4.753-3.631-7.9-3.737v2.304h-1.005zM15.939 18.885h3.516c0.277 0 0.502 0.226 0.502 0.502 0 0.277-0.225 0.503-0.502 0.503h-4.018c-0.277 0-0.502-0.226-0.502-0.503v-6.967c0-0.277 0.225-0.502 0.502-0.502s0.502 0.225 0.502 0.502v6.465z"></path>
</symbol>
<symbol id="icon-locked" viewBox="0 0 32 32">
<title>locked</title>
<path d="M4 31v-16h3v-5c0-4.418 3.581-8 8-8h1c4.418 0 8 3.582 8 8v5h3v16h-23zM14.744 22.787l-0.744 5.213h3l-0.745-5.213c0.729-0.298 1.245-1.013 1.245-1.85 0-1.104-0.896-2-2-2-1.105 0-2 0.896-2 2 0 0.837 0.515 1.552 1.244 1.85zM21 10.5c0-3.038-2.463-5.5-5.5-5.5-3.038 0-5.5 2.462-5.5 5.5v4.5h11v-4.5z"></path>
</symbol>
<symbol id="icon-ruler" viewBox="0 0 32 32">
<title>ruler</title>
<path d="M23.023 29.006v-2.029h-1.013v2.029h-1.014v-2.029h-1.016v2.029h-0.951v-3.043h-1.014v3.043h-1.014v-2.029h-1.014v2.029h-0.951v-2.029h-1.014v2.029h-1.015v-3.043h-1.014v3.043h-1.014v-2.029h-0.949v2.029h-1.014v-2.029h-1.015v2.029h-1.013v-3.043h-0.951v3.043h-3.042v-25.011l25.011 25.011h-4.983zM6.988 13.584v11.365h11.364l-11.364-11.365z"></path>
</symbol>
<symbol id="icon-stats" viewBox="0 0 32 32">
<title>stats</title>
<path d="M5.998 5h-0.987v23h20v-0.963l-18.996-0.049-0.017-21.988zM8.011 25h5v-10.875l-5 5v5.875zM14.011 25h5v-9.875l-2 2-3-3v10.875zM20.011 25h5v-15.187l-5 5v10.187zM13.387 11.067l3.62 3.6 7.148-7.112 1.834 1.844-0.044-4.399-4.415 0.023 1.717 1.722-6.242 6.26-3.689-3.703-5.623 5.604 0.939 0.912 4.755-4.751z"></path>
</symbol>
<symbol id="icon-pig" viewBox="0 0 32 32">
<title>pig</title>
<path d="M24.674 21.909c0 0 3.33-2.278 3.33-6.771 0-6.688-7.088-9.161-10.899-9.095-3.812 0.067-4.948 1.070-4.948 1.070s-1.297-0.943-2.672-1.733c-1.052-0.41-1.296-0.469-2.027-0.234-0.585 0-0.217 0.974 0.018 1.325 0.233 0.351 1.366 2.29 1.366 2.29s-2.378 2.449-2.554 4.059c0-0.029-1.12-0.009-1.734-0.009s-0.556 0.669-0.556 0.669l0.017 4.714c0 0-0.038 0.669 0.519 0.669 0.556 0 1.738 0.013 1.738 0.013s1.663 2.415 2.717 2.854c0 0.029-0.911 2.503-0.911 2.503s-0.439 0.761 0.351 1.054c0.79 0.292 2.851 1.157 3.729 1.421s1.003-0.334 1.003-0.334l0.869-1.877 5.685 0.009 0.869 1.935c0 0 0.167 0.898 1.337 0.401 1.171-0.497 2.449-1.087 3.415-1.584 0.965-0.497 0.33-1.426 0.33-1.426l-0.992-1.923zM9.322 13.764c-0.533 0-0.965-0.433-0.965-0.966s0.432-0.965 0.965-0.965 0.966 0.432 0.966 0.965-0.433 0.966-0.966 0.966zM22.925 10.756c-0.308 0.365-0.509 0.096-0.757 0.023 0 0-1.051-0.975-2.595-1.43-1.599-0.47-3.282-0.243-3.282-0.243-0.248-0.073-0.549-0.081-0.551-0.464 0.013-0.473 0.587-0.477 0.58-0.493 0 0 1.894-0.175 3.479 0.291 1.559 0.458 2.75 1.454 2.75 1.454s0.637 0.439 0.376 0.862z"></path>
</symbol>
<symbol id="icon-safe" viewBox="0 0 32 32">
<title>safe</title>
<path d="M27 29l-1.999-0.062v2.062h-3v-2h-11.938l-0.062 2h-3v-1.938l-2.001-0.062c-1.104 0-2-0.896-2-2v-24c0-1.104 0.896-2 2-2h22c1.104 0 2 0.896 2 2v24c0 1.104-0.896 2-2 2zM26 4h-20v3.958l-0.979-0.020v3.083h0.979v7.917h-1v3.062h1v4h20v-22zM25 25h-18v-3h1v-3.062h-1v-7.938h1l0.021-3.042h-1.021v-2.958h18v20zM14.562 10.562c-2.209 0-4 1.791-4 4s1.791 4 4 4c2.21 0 4-1.791 4-4s-1.79-4-4-4zM23.5 11.518c0-0.553-0.447-1-1-1-0.552 0-1 0.447-1 1 0 0.366 0.207 0.673 0.5 0.847v5.289c-0.293 0.174-0.5 0.48-0.5 0.847 0 0.552 0.448 1 1 1 0.553 0 1-0.448 1-1 0-0.394-0.232-0.726-0.562-0.889v-5.205c0.33-0.164 0.562-0.496 0.562-0.889zM14.5 16.25c-0.828 0-1.5-0.672-1.5-1.5 0-0.829 0.672-1.5 1.5-1.5 0.829 0 1.5 0.671 1.5 1.5 0 0.828-0.671 1.5-1.5 1.5z"></path>
</symbol>
<symbol id="icon-envelope" viewBox="0 0 32 32">
<title>envelope</title>
<path d="M16.015 18.861l-4.072-3.343-8.862 10.463h25.876l-8.863-10.567-4.079 3.447zM29.926 6.019h-27.815l13.908 11.698 13.907-11.698zM20.705 14.887l9.291 11.084v-18.952l-9.291 7.868zM2.004 7.019v18.952l9.291-11.084-9.291-7.868z"></path>
</symbol>
<symbol id="icon-play3" viewBox="0 0 32 32">
<title>play3</title>
<path d="M6 4l20 12-20 12z"></path>
</symbol>
<symbol id="icon-arrow-up2" viewBox="0 0 32 32">
<title>arrow-up2</title>
<path d="M27.414 12.586l-10-10c-0.781-0.781-2.047-0.781-2.828 0l-10 10c-0.781 0.781-0.781 2.047 0 2.828s2.047 0.781 2.828 0l6.586-6.586v19.172c0 1.105 0.895 2 2 2s2-0.895 2-2v-19.172l6.586 6.586c0.39 0.39 0.902 0.586 1.414 0.586s1.024-0.195 1.414-0.586c0.781-0.781 0.781-2.047 0-2.828z"></path>
</symbol>
<symbol id="icon-arrow-down2" viewBox="0 0 32 32">
<title>arrow-down2</title>
<path d="M27.414 19.414l-10 10c-0.781 0.781-2.047 0.781-2.828 0l-10-10c-0.781-0.781-0.781-2.047 0-2.828s2.047-0.781 2.828 0l6.586 6.586v-19.172c0-1.105 0.895-2 2-2s2 0.895 2 2v19.172l6.586-6.586c0.39-0.39 0.902-0.586 1.414-0.586s1.024 0.195 1.414 0.586c0.781 0.781 0.781 2.047 0 2.828z"></path>
</symbol>
<symbol id="icon-facebook" viewBox="0 0 32 32">
<title>facebook</title>
<path d="M19 6h5v-6h-5c-3.86 0-7 3.14-7 7v3h-4v6h4v16h6v-16h5l1-6h-6v-3c0-0.542 0.458-1 1-1z"></path>
</symbol>
<symbol id="icon-facebook2" viewBox="0 0 32 32">
<title>facebook2</title>
<path d="M29 0h-26c-1.65 0-3 1.35-3 3v26c0 1.65 1.35 3 3 3h13v-14h-4v-4h4v-2c0-3.306 2.694-6 6-6h4v4h-4c-1.1 0-2 0.9-2 2v2h6l-1 4h-5v14h9c1.65 0 3-1.35 3-3v-26c0-1.65-1.35-3-3-3z"></path>
</symbol>
<symbol id="icon-instagram" viewBox="0 0 32 32">
<title>instagram</title>
<path d="M16 2.881c4.275 0 4.781 0.019 6.462 0.094 1.563 0.069 2.406 0.331 2.969 0.55 0.744 0.288 1.281 0.638 1.837 1.194 0.563 0.563 0.906 1.094 1.2 1.838 0.219 0.563 0.481 1.412 0.55 2.969 0.075 1.688 0.094 2.194 0.094 6.463s-0.019 4.781-0.094 6.463c-0.069 1.563-0.331 2.406-0.55 2.969-0.288 0.744-0.637 1.281-1.194 1.837-0.563 0.563-1.094 0.906-1.837 1.2-0.563 0.219-1.413 0.481-2.969 0.55-1.688 0.075-2.194 0.094-6.463 0.094s-4.781-0.019-6.463-0.094c-1.563-0.069-2.406-0.331-2.969-0.55-0.744-0.288-1.281-0.637-1.838-1.194-0.563-0.563-0.906-1.094-1.2-1.837-0.219-0.563-0.481-1.413-0.55-2.969-0.075-1.688-0.094-2.194-0.094-6.463s0.019-4.781 0.094-6.463c0.069-1.563 0.331-2.406 0.55-2.969 0.288-0.744 0.638-1.281 1.194-1.838 0.563-0.563 1.094-0.906 1.838-1.2 0.563-0.219 1.412-0.481 2.969-0.55 1.681-0.075 2.188-0.094 6.463-0.094zM16 0c-4.344 0-4.887 0.019-6.594 0.094-1.7 0.075-2.869 0.35-3.881 0.744-1.056 0.412-1.95 0.956-2.837 1.85-0.894 0.888-1.438 1.781-1.85 2.831-0.394 1.019-0.669 2.181-0.744 3.881-0.075 1.713-0.094 2.256-0.094 6.6s0.019 4.887 0.094 6.594c0.075 1.7 0.35 2.869 0.744 3.881 0.413 1.056 0.956 1.95 1.85 2.837 0.887 0.887 1.781 1.438 2.831 1.844 1.019 0.394 2.181 0.669 3.881 0.744 1.706 0.075 2.25 0.094 6.594 0.094s4.888-0.019 6.594-0.094c1.7-0.075 2.869-0.35 3.881-0.744 1.050-0.406 1.944-0.956 2.831-1.844s1.438-1.781 1.844-2.831c0.394-1.019 0.669-2.181 0.744-3.881 0.075-1.706 0.094-2.25 0.094-6.594s-0.019-4.887-0.094-6.594c-0.075-1.7-0.35-2.869-0.744-3.881-0.394-1.063-0.938-1.956-1.831-2.844-0.887-0.887-1.781-1.438-2.831-1.844-1.019-0.394-2.181-0.669-3.881-0.744-1.712-0.081-2.256-0.1-6.6-0.1v0z"></path>
<path d="M16 7.781c-4.537 0-8.219 3.681-8.219 8.219s3.681 8.219 8.219 8.219 8.219-3.681 8.219-8.219c0-4.537-3.681-8.219-8.219-8.219zM16 21.331c-2.944 0-5.331-2.387-5.331-5.331s2.387-5.331 5.331-5.331c2.944 0 5.331 2.387 5.331 5.331s-2.387 5.331-5.331 5.331z"></path>
<path d="M26.462 7.456c0 1.060-0.859 1.919-1.919 1.919s-1.919-0.859-1.919-1.919c0-1.060 0.859-1.919 1.919-1.919s1.919 0.859 1.919 1.919z"></path>
</symbol>
<symbol id="icon-telegram" viewBox="0 0 32 32">
<title>telegram</title>
<path d="M16 0c-8.838 0-16 7.162-16 16s7.162 16 16 16 16-7.163 16-16-7.163-16-16-16zM23.863 10.969l-2.625 12.369c-0.181 0.881-0.712 1.087-1.45 0.681l-4-2.956-1.919 1.869c-0.225 0.219-0.4 0.4-0.8 0.4-0.519 0-0.431-0.194-0.606-0.688l-1.363-4.475-3.956-1.231c-0.856-0.262-0.862-0.85 0.194-1.269l15.412-5.95c0.7-0.319 1.381 0.169 1.113 1.25z"></path>
</symbol>
<symbol id="icon-linkedin" viewBox="0 0 32 32">
<title>linkedin</title>
<path d="M29 0h-26c-1.65 0-3 1.35-3 3v26c0 1.65 1.35 3 3 3h26c1.65 0 3-1.35 3-3v-26c0-1.65-1.35-3-3-3zM12 26h-4v-14h4v14zM10 10c-1.106 0-2-0.894-2-2s0.894-2 2-2c1.106 0 2 0.894 2 2s-0.894 2-2 2zM26 26h-4v-8c0-1.106-0.894-2-2-2s-2 0.894-2 2v8h-4v-14h4v2.481c0.825-1.131 2.087-2.481 3.5-2.481 2.488 0 4.5 2.238 4.5 5v9z"></path>
</symbol>
</defs>
</svg>
