<!-- Generated by IcoMoon.io -->
<svg version="1.1" xmlns="http://www.w3.org/2000/svg" width="32" height="32" viewBox="0 0 32 32">
<title>ansible-icon</title>
<path fill="#1a1918" d="M32 16c0 8.837-7.163 16-16 16s-16-7.163-16-16c0-8.836 7.164-16 16-16s16 7.164 16 16z"></path>
<path fill="#fff" d="M16.269 9.774l4.141 10.219-6.254-4.926zM23.625 22.347l-6.369-15.327c-0.182-0.442-0.545-0.676-0.987-0.676s-0.832 0.234-1.014 0.676l-6.99 16.812h2.391l2.767-6.932 8.258 6.671c0.332 0.268 0.572 0.39 0.883 0.39 0.624 0 1.169-0.468 1.169-1.143 0-0.11-0.039-0.284-0.109-0.472z"></path>
</svg>
