<!-- Generated by IcoMoon.io -->
<svg version="1.1" xmlns="http://www.w3.org/2000/svg" width="33" height="32" viewBox="0 0 33 32">
<title>kubernetes</title>
<path fill="#326ce5" d="M16.365 0.459c-0.3 0.016-0.578 0.090-0.829 0.212l0.013-0.005-11.139 5.322c-0.578 0.28-1.002 0.797-1.15 1.419l-0.003 0.014-2.748 11.955c-0.034 0.141-0.053 0.304-0.053 0.471 0 0.427 0.128 0.825 0.348 1.157l-0.005-0.008c0.042 0.065 0.082 0.12 0.124 0.172l-0.003-0.004 7.71 9.586c0.394 0.486 0.993 0.795 1.665 0.795 0 0 0 0 0 0l12.364-0.003c0 0 0.001 0 0.002 0 0.671 0 1.27-0.308 1.661-0.789l0.003-0.004 7.707-9.587c0.29-0.358 0.465-0.817 0.465-1.318 0-0.167-0.019-0.329-0.056-0.484l0.003 0.014-2.752-11.955c-0.15-0.636-0.575-1.153-1.14-1.428l-0.013-0.005-11.14-5.319c-0.27-0.132-0.588-0.209-0.924-0.209-0.038 0-0.076 0.001-0.114 0.003l0.005-0z"></path>
<path fill="#fff" d="M16.475 4.527c-0.368 0-0.667 0.332-0.667 0.741 0 0.006 0.001 0.012 0.001 0.019-0.001 0.056-0.003 0.123-0.001 0.171 0.009 0.236 0.060 0.417 0.091 0.634 0.056 0.465 0.103 0.851 0.074 1.209-0.028 0.135-0.128 0.259-0.217 0.345l-0.016 0.282c-0.4 0.033-0.803 0.094-1.205 0.185-1.731 0.393-3.222 1.285-4.356 2.489-0.074-0.050-0.202-0.143-0.241-0.171-0.119 0.016-0.239 0.053-0.396-0.038-0.298-0.201-0.57-0.478-0.899-0.812-0.151-0.16-0.26-0.312-0.439-0.466-0.041-0.035-0.103-0.082-0.148-0.118-0.14-0.112-0.305-0.17-0.464-0.175-0.205-0.007-0.402 0.073-0.531 0.235-0.23 0.288-0.156 0.728 0.164 0.983 0.003 0.003 0.007 0.005 0.010 0.007 0.044 0.036 0.098 0.081 0.138 0.111 0.19 0.14 0.363 0.212 0.553 0.323 0.399 0.246 0.729 0.45 0.992 0.697 0.102 0.109 0.12 0.301 0.134 0.385l0.214 0.191c-1.144 1.722-1.673 3.848-1.36 6.014l-0.279 0.081c-0.074 0.095-0.178 0.245-0.286 0.289-0.343 0.108-0.729 0.148-1.195 0.197-0.219 0.018-0.408 0.007-0.64 0.051-0.051 0.010-0.122 0.028-0.178 0.041-0.002 0-0.004 0.001-0.006 0.001-0.003 0.001-0.007 0.002-0.010 0.003-0.393 0.095-0.645 0.456-0.564 0.812s0.465 0.572 0.86 0.487c0.003-0.001 0.007-0.001 0.010-0.001 0.004-0.001 0.008-0.003 0.013-0.004 0.055-0.012 0.124-0.026 0.172-0.038 0.228-0.061 0.393-0.151 0.598-0.229 0.441-0.158 0.806-0.29 1.162-0.342 0.149-0.012 0.305 0.092 0.383 0.135l0.291-0.050c0.669 2.073 2.070 3.749 3.845 4.801l-0.121 0.291c0.044 0.113 0.092 0.266 0.059 0.377-0.129 0.336-0.351 0.69-0.603 1.085-0.122 0.182-0.247 0.324-0.358 0.533-0.026 0.050-0.060 0.127-0.085 0.18-0.171 0.367-0.046 0.789 0.284 0.947 0.331 0.159 0.742-0.009 0.92-0.376 0-0.001 0.001-0.001 0.001-0.001s-0-0.001 0-0.001c0.025-0.052 0.061-0.121 0.083-0.17 0.094-0.216 0.126-0.402 0.192-0.611 0.176-0.443 0.273-0.908 0.516-1.198 0.066-0.079 0.175-0.11 0.287-0.14l0.151-0.274c1.547 0.594 3.279 0.753 5.009 0.36 0.395-0.090 0.776-0.206 1.144-0.345 0.042 0.075 0.121 0.22 0.142 0.256 0.114 0.037 0.239 0.056 0.34 0.207 0.182 0.31 0.306 0.678 0.457 1.121 0.066 0.209 0.099 0.395 0.194 0.611 0.022 0.049 0.057 0.119 0.083 0.171 0.178 0.369 0.59 0.537 0.922 0.378 0.329-0.159 0.455-0.581 0.284-0.947-0.025-0.053-0.061-0.13-0.087-0.18-0.11-0.209-0.235-0.349-0.358-0.531-0.252-0.395-0.462-0.723-0.591-1.058-0.054-0.173 0.009-0.281 0.051-0.393-0.025-0.029-0.079-0.192-0.111-0.269 1.844-1.089 3.205-2.827 3.843-4.835 0.086 0.014 0.236 0.040 0.285 0.050 0.1-0.066 0.192-0.152 0.373-0.138 0.356 0.051 0.721 0.184 1.162 0.342 0.205 0.079 0.37 0.17 0.598 0.231 0.048 0.013 0.117 0.025 0.172 0.037 0.004 0.001 0.008 0.003 0.013 0.004 0.003 0.001 0.007 0.001 0.010 0.001 0.395 0.085 0.779-0.131 0.86-0.487s-0.171-0.717-0.564-0.812c-0.057-0.013-0.138-0.035-0.194-0.046-0.232-0.044-0.421-0.033-0.64-0.051-0.466-0.049-0.852-0.089-1.195-0.197-0.14-0.054-0.239-0.221-0.288-0.289l-0.269-0.078c0.14-1.010 0.102-2.061-0.14-3.113-0.244-1.061-0.675-2.032-1.249-2.888 0.069-0.063 0.2-0.178 0.236-0.212 0.011-0.12 0.002-0.245 0.125-0.377 0.262-0.246 0.593-0.45 0.991-0.697 0.189-0.111 0.364-0.183 0.554-0.323 0.043-0.032 0.102-0.082 0.147-0.118 0.32-0.255 0.393-0.695 0.164-0.983s-0.675-0.315-0.994-0.060c-0.046 0.036-0.107 0.083-0.148 0.118-0.179 0.154-0.29 0.306-0.44 0.466-0.329 0.334-0.601 0.613-0.899 0.813-0.129 0.075-0.319 0.049-0.405 0.044l-0.254 0.181c-1.446-1.516-3.415-2.486-5.534-2.674-0.006-0.089-0.014-0.249-0.016-0.298-0.087-0.083-0.192-0.154-0.218-0.333-0.029-0.358 0.019-0.744 0.076-1.209 0.031-0.217 0.082-0.398 0.091-0.634 0.002-0.054-0.001-0.131-0.001-0.189-0-0.409-0.299-0.741-0.667-0.741zM15.64 9.698l-0.198 3.497-0.014 0.007c-0.013 0.313-0.271 0.563-0.587 0.563-0.13 0-0.249-0.042-0.346-0.113l-0.006 0.003-2.868-2.033c0.881-0.867 2.009-1.507 3.308-1.802 0.237-0.054 0.475-0.094 0.711-0.123zM17.311 9.698c1.517 0.187 2.92 0.873 3.994 1.926l-2.849 2.020-0.010-0.004c-0.253 0.185-0.609 0.139-0.806-0.108-0.081-0.101-0.123-0.22-0.128-0.34l-0.003-0.001zM10.582 12.929l2.618 2.342-0.003 0.014c0.236 0.205 0.271 0.562 0.074 0.809-0.081 0.101-0.189 0.169-0.305 0.201l-0.003 0.011-3.356 0.969c-0.171-1.562 0.197-3.080 0.974-4.346zM22.35 12.931c0.389 0.631 0.684 1.335 0.859 2.098 0.173 0.754 0.217 1.507 0.145 2.235l-3.373-0.972-0.003-0.014c-0.302-0.083-0.488-0.39-0.417-0.698 0.029-0.126 0.096-0.233 0.187-0.312l-0.001-0.007 2.604-2.331zM15.938 15.452h1.073l0.667 0.833-0.239 1.040-0.963 0.463-0.966-0.464-0.239-1.040zM19.377 18.304c0.046-0.002 0.091 0.002 0.135 0.010l0.006-0.007 3.472 0.587c-0.508 1.427-1.48 2.664-2.779 3.492l-1.348-3.255 0.004-0.006c-0.124-0.288 0-0.625 0.285-0.762 0.073-0.035 0.149-0.055 0.225-0.058zM13.546 18.318c0.265 0.004 0.503 0.188 0.564 0.457 0.029 0.126 0.015 0.251-0.033 0.362l0.010 0.013-1.333 3.222c-1.247-0.8-2.24-1.998-2.771-3.467l3.442-0.584 0.006 0.007c0.039-0.007 0.078-0.011 0.115-0.010zM16.454 19.73c0.092-0.003 0.186 0.016 0.275 0.058 0.117 0.056 0.207 0.145 0.264 0.251h0.013l1.697 3.066c-0.22 0.074-0.447 0.137-0.678 0.189-1.298 0.295-2.591 0.205-3.762-0.194l1.692-3.060h0.003c0.102-0.19 0.294-0.303 0.497-0.311z"></path>
</svg>
