<!-- Generated by IcoMoon.io -->
<svg version="1.1" xmlns="http://www.w3.org/2000/svg" width="32" height="32" viewBox="0 0 32 32">
<title>medium1</title>
<path fill="#fedd3e" d="M0 0h32v32h-32v-32z"></path>
<path fill="#111" d="M7.636 10.702c0.027-0.264-0.074-0.525-0.271-0.702l-2.007-2.418v-0.361h6.232l4.817 10.565 4.235-10.565h5.941v0.361l-1.716 1.645c-0.148 0.113-0.221 0.298-0.191 0.482v12.090c-0.031 0.183 0.043 0.369 0.191 0.482l1.676 1.645v0.361h-8.43v-0.361l1.736-1.686c0.171-0.171 0.171-0.221 0.171-0.482v-9.772l-4.827 12.261h-0.652l-5.62-12.261v8.217c-0.047 0.345 0.068 0.693 0.311 0.943l2.258 2.739v0.361h-6.403v-0.361l2.258-2.739c0.241-0.25 0.35-0.6 0.291-0.943v-9.502z"></path>
</svg>
