<!-- Generated by IcoMoon.io -->
<svg version="1.1" xmlns="http://www.w3.org/2000/svg" width="32" height="32" viewBox="0 0 32 32">
<title>Prometheus_software_logo</title>
<path fill="#e6522c" d="M15.907 0.187c-8.785 0-15.907 7.121-15.907 15.906s7.122 15.906 15.907 15.906 15.906-7.122 15.906-15.906c0-8.785-7.122-15.906-15.906-15.906zM15.907 29.957c-2.499 0-4.526-1.67-4.526-3.729h9.052c0 2.059-2.026 3.729-4.526 3.729zM23.382 24.994h-14.951v-2.711h14.951v2.711zM23.328 20.887h-14.855c-0.049-0.057-0.1-0.113-0.148-0.171-1.53-1.858-1.891-2.828-2.241-3.817-0.006-0.033 1.856 0.38 3.176 0.677 0 0 0.679 0.157 1.672 0.338-0.954-1.118-1.52-2.539-1.52-3.991 0-3.188 2.445-5.975 1.563-8.227 0.859 0.070 1.777 1.812 1.839 4.536 0.913-1.261 1.295-3.565 1.295-4.978 0-1.462 0.964-3.161 1.928-3.219-0.859 1.416 0.223 2.63 1.184 5.642 0.361 1.131 0.315 3.035 0.593 4.242 0.092-2.508 0.523-6.166 2.114-7.429-0.702 1.591 0.104 3.581 0.655 4.538 0.889 1.544 1.428 2.714 1.428 4.926 0 1.483-0.548 2.88-1.471 3.971 1.050-0.197 1.776-0.375 1.776-0.375l3.411-0.666c0-0-0.495 2.038-2.4 4.001z"></path>
</svg>
