<!-- Generated by IcoMoon.io -->
<svg version="1.1" xmlns="http://www.w3.org/2000/svg" width="32" height="32" viewBox="0 0 32 32">
<title>viber</title>
<path d="M6.399 2.008c-0.539 0.060-1.147 0.253-1.68 0.53-1.254 0.661-2.187 1.948-2.434 3.366-0.054 0.301-0.057 0.706-0.057 10.069v9.757l0.069 0.304c0.429 1.939 1.799 3.31 3.739 3.739l0.304 0.069h19.602l0.304-0.069c1.939-0.429 3.31-1.799 3.739-3.739l0.069-0.304v-9.757c0-9.363-0.003-9.768-0.057-10.069-0.075-0.435-0.223-0.873-0.45-1.326-0.706-1.421-2.124-2.404-3.715-2.577-0.363-0.039-19.081-0.036-19.433 0.006zM17.043 6.962c1.025 0.128 1.853 0.375 2.762 0.819 0.894 0.438 1.466 0.852 2.222 1.606 0.709 0.712 1.102 1.251 1.519 2.088 0.581 1.168 0.912 2.556 0.968 4.084 0.021 0.521 0.006 0.637-0.113 0.786-0.226 0.289-0.724 0.241-0.894-0.083-0.054-0.107-0.069-0.2-0.086-0.617-0.030-0.64-0.074-1.055-0.164-1.549-0.352-1.939-1.281-3.488-2.765-4.6-1.236-0.929-2.514-1.382-4.189-1.481-0.566-0.033-0.664-0.054-0.792-0.152-0.238-0.188-0.25-0.629-0.021-0.834 0.14-0.128 0.238-0.146 0.724-0.131 0.253 0.009 0.626 0.039 0.828 0.063zM10.233 7.284c0.104 0.036 0.265 0.119 0.357 0.179 0.566 0.375 2.142 2.392 2.657 3.399 0.295 0.575 0.393 1.001 0.301 1.317-0.095 0.34-0.253 0.518-0.959 1.087-0.283 0.229-0.548 0.465-0.59 0.527-0.107 0.155-0.194 0.459-0.194 0.673 0.003 0.497 0.325 1.4 0.748 2.094 0.328 0.539 0.915 1.23 1.495 1.761 0.682 0.626 1.284 1.052 1.963 1.388 0.873 0.435 1.406 0.545 1.796 0.363 0.098-0.045 0.203-0.104 0.235-0.131 0.030-0.027 0.259-0.307 0.509-0.617 0.483-0.608 0.593-0.706 0.924-0.819 0.42-0.143 0.849-0.104 1.281 0.116 0.328 0.17 1.043 0.614 1.504 0.935 0.608 0.426 1.907 1.487 2.082 1.698 0.31 0.381 0.363 0.87 0.155 1.409-0.22 0.569-1.078 1.635-1.677 2.091-0.542 0.411-0.926 0.569-1.433 0.593-0.417 0.021-0.59-0.015-1.123-0.235-4.183-1.725-7.522-4.299-10.174-7.835-1.385-1.847-2.44-3.763-3.161-5.75-0.42-1.159-0.441-1.662-0.095-2.255 0.149-0.25 0.784-0.87 1.245-1.215 0.769-0.572 1.123-0.784 1.406-0.843 0.194-0.042 0.53-0.009 0.745 0.069zM17.249 9.122c1.808 0.265 3.208 1.105 4.126 2.47 0.515 0.769 0.837 1.671 0.947 2.639 0.039 0.355 0.039 1.001-0.003 1.108-0.039 0.101-0.164 0.238-0.271 0.295-0.116 0.060-0.363 0.054-0.5-0.018-0.229-0.116-0.298-0.301-0.298-0.801 0-0.772-0.2-1.585-0.545-2.216-0.393-0.721-0.965-1.317-1.662-1.731-0.599-0.357-1.484-0.623-2.291-0.688-0.292-0.024-0.453-0.083-0.563-0.212-0.17-0.194-0.188-0.456-0.045-0.673 0.155-0.241 0.393-0.28 1.105-0.173zM17.883 11.371c0.587 0.125 1.037 0.349 1.421 0.709 0.495 0.468 0.766 1.034 0.885 1.847 0.080 0.53 0.048 0.739-0.14 0.912-0.176 0.161-0.5 0.167-0.697 0.015-0.143-0.107-0.188-0.22-0.22-0.527-0.039-0.408-0.11-0.694-0.232-0.959-0.262-0.563-0.724-0.855-1.504-0.95-0.366-0.045-0.477-0.086-0.596-0.226-0.218-0.259-0.134-0.679 0.167-0.834 0.113-0.057 0.161-0.063 0.411-0.048 0.155 0.009 0.384 0.036 0.506 0.063z"></path>
</svg>
